<?xml version="1.0" encoding="utf-8"?>
<!-- Generator: Adobe Illustrator 26.5.0, SVG Export Plug-In . SVG Version: 6.00 Build 0)  -->
<svg version="1.1" id="图层_1" xmlns="http://www.w3.org/2000/svg" xmlns:xlink="http://www.w3.org/1999/xlink" x="0px" y="0px"
	 viewBox="0 0 60.9 60.5" style="enable-background:new 0 0 60.9 60.5;" xml:space="preserve">
<style type="text/css">
	.st0{fill:#838383;}
	.st1{fill:#717171;}
	.st2{fill:#9F9F9F;}
	.st3{fill:#737373;}
	.st4{fill:#777777;}
</style>
<g transform="translate(-206.68785,-149.76772)">
	<g>
		<path class="st0" d="M237.3,210.2c-9.9,0-19.3-4.8-25.1-12.9l11-7.9c3.3,4.6,8.6,7.3,14.2,7.3c2.9,0,5.6-0.7,8.1-2l6.3,11.9
			C247.2,209,242.3,210.2,237.3,210.2z"/>
		<path class="st1" d="M212.1,197.3c-3.6-5.1-5.4-11.2-5.4-17.4c0-7.2,2.6-14.2,7.2-19.7l10.3,8.7c-2.6,3.1-4,7-4,11
			c0,3.5,1,6.9,3,9.7L212.1,197.3z"/>
		<path class="st2" d="M224.1,169l-10.2-8.9c5.7-6.6,14.1-10.4,22.8-10.4c7.9,0,15.4,3,21.1,8.5l-9.4,9.7c-3.1-3-7.3-4.7-11.7-4.7
			C231.9,163.3,227.3,165.4,224.1,169z"/>
		<path class="st3" d="M251.6,206.7l-6.4-11.9c5.5-2.9,8.9-8.6,8.9-14.8c0-1.2-0.1-2.3-0.3-3.4l13.2-2.6c0.4,2,0.6,4.1,0.6,6.2
			C267.6,191.2,261.4,201.4,251.6,206.7z"/>
		<path class="st4" d="M236.2,186.1v-12.3h30.3v12.3H236.2z"/>
	</g>
</g>
</svg>
