<?xml version="1.0" encoding="utf-8"?>
<!-- Generator: Adobe Illustrator 26.5.0, SVG Export Plug-In . SVG Version: 6.00 Build 0)  -->
<svg version="1.1" id="图层_1" xmlns="http://www.w3.org/2000/svg" xmlns:xlink="http://www.w3.org/1999/xlink" x="0px" y="0px"
	 viewBox="0 0 32 31.8" style="enable-background:new 0 0 32 31.8;" xml:space="preserve">
<style type="text/css">
	.st0{fill-rule:evenodd;clip-rule:evenodd;fill:#8C8C8C;}
	.st1{fill-rule:evenodd;clip-rule:evenodd;fill:#ADADAD;}
</style>
<g>
	<g>
		<g>
			<path class="st0" d="M15.9,27.6c-6.5,0-11.7-5.2-11.7-11.7S9.4,4.2,15.9,4.2s11.7,5.2,11.7,11.7C27.6,22.3,22.3,27.6,15.9,27.6z
				 M1.3,22.1c-0.8-2-1.2-4-1.2-6.2s0.4-4.2,1.2-6.2c0.8-1.9,1.9-3.6,3.4-5c1.4-1.5,3.1-2.6,5-3.4c2-0.8,4-1.2,6.2-1.2
				s4.2,0.4,6.2,1.2c1.9,0.8,3.6,1.9,5.1,3.4c1.4,1.5,2.6,3.1,3.4,5c0.8,2,1.2,4,1.2,6.2s-0.4,4.2-1.2,6.2l0,0
				c-0.3,0.7-1,1.1-1.8,1.1c-0.2,0-0.4,0-0.6,0c-2.4,0.2-4.4,2.1-4.6,4.6c0,0.2,0,0.5,0,0.8c0.1,0.8-0.4,1.5-1.1,1.8
				c-0.1,0.1-0.3,0.1-0.5,0.2c-2,0.8-4,1.2-6.2,1.2s-4.2-0.4-6.2-1.2c-1.9-0.8-3.6-1.9-5-3.4C3.2,25.6,2,23.9,1.3,22.1L1.3,22.1z"/>
		</g>
	</g>
	<path class="st1" d="M32,28.1c0,1.9-1.6,3.5-3.5,3.5S25,30,25,28.1s1.6-3.5,3.5-3.5S32,26.2,32,28.1z"/>
	<path class="st0" d="M16.9,19.2c0-0.7,0.4-1.3,0.9-1.6l3-1.7l-3-1.8c-0.6-0.3-0.9-1-0.9-1.6v-1.6c0-1.2,1.3-1.9,2.3-1.3l4.4,2.6
		c0.8,0.4,1.3,1.3,1.3,2.2v3.2c0,0.9-0.5,1.7-1.3,2.2l-4.4,2.5c-1,0.6-2.3-0.1-2.3-1.3V19.2z"/>
	<path class="st0" d="M6.9,17.5v-3.2c0-0.9,0.5-1.7,1.3-2.2l4.4-2.6c1-0.6,2.3,0.1,2.3,1.3v1.6c0,0.7-0.4,1.3-0.9,1.6l-3,1.8l3,1.7
		c0.6,0.3,0.9,1,0.9,1.6v1.7c0,1.2-1.3,1.9-2.3,1.3l-4.4-2.5C7.4,19.2,6.9,18.4,6.9,17.5L6.9,17.5z"/>
</g>
</svg>
