<?xml version="1.0" encoding="utf-8"?>
<!-- Generator: Adobe Illustrator 26.5.0, SVG Export Plug-In . SVG Version: 6.00 Build 0)  -->
<svg version="1.1" id="图层_1" xmlns="http://www.w3.org/2000/svg" xmlns:xlink="http://www.w3.org/1999/xlink" x="0px" y="0px"
	 viewBox="0 0 24.9 25" style="enable-background:new 0 0 24.9 25;" xml:space="preserve">
<style type="text/css">
	.st0{fill:#B0B0B0;}
	.st1{fill:none;}
</style>
<g transform="translate(-227.5625,-167.50956)">
	<g>
		<path class="st0" d="M240.1,191c-2.7,0-5.4-1-7.6-2.9c-4.6-4.2-5-11.3-0.9-15.9c4-4.1,8.9-3.7,8.8-3.6c-0.2,0.5-0.9,6.5,2.4,9.6
			c3.8,3.6,8.4,1.1,8.4,1.1s0,4.9-2.9,8.1C246.2,189.7,243.2,191,240.1,191z M237.7,171.2c-1.6,0.4-3.1,1.3-4.2,2.6
			c-3.2,3.6-2.9,9.1,0.7,12.4c3.6,3.3,9.2,3,12.4-0.5c0.9-0.9,1.5-2.1,1.9-3.1c-1.9,0.1-4.8-0.2-7.3-2.5
			C238.2,177.2,237.7,173.4,237.7,171.2z"/>
		<path class="st1" d="M227.6,193.5v-24.9h24.9v24.9H227.6z"/>
	</g>
</g>
</svg>
