<?xml version="1.0" encoding="utf-8"?>
<!-- Generator: Adobe Illustrator 26.5.0, SVG Export Plug-In . SVG Version: 6.00 Build 0)  -->
<svg version="1.1" id="图层_1" xmlns="http://www.w3.org/2000/svg" xmlns:xlink="http://www.w3.org/1999/xlink" x="0px" y="0px"
	 viewBox="0 0 28.6 32" style="enable-background:new 0 0 28.6 32;" xml:space="preserve">
<style type="text/css">
	.st0{fill:#7A7A7A;}
	.st1{fill:#8C8C8C;}
</style>
<g transform="translate(-223.6,-161.7)">
	<g>
		<path class="st0" d="M237.5,189.5c-7.7,0-13.9-6.2-13.9-13.9s6.2-13.9,13.9-13.9s13.9,6.2,13.9,13.9S245.2,189.5,237.5,189.5z
			 M237.5,166.7c-4.9,0-8.9,4-8.9,8.9c0,4.9,4,8.9,8.9,8.9c4.9,0,8.9-4,8.9-8.9C246.4,170.7,242.4,166.7,237.5,166.7z"/>
		<path class="st1" d="M249.7,193.7c-0.7,0-1.5-0.3-2-1l-4.4-5.6c-0.9-1.1-0.7-2.7,0.4-3.5c1.1-0.9,2.7-0.7,3.5,0.4l4.4,5.6
			c0.9,1.1,0.7,2.7-0.4,3.5C250.8,193.5,250.2,193.7,249.7,193.7z"/>
	</g>
</g>
</svg>
