<?xml version="1.0" encoding="utf-8"?>
<!-- Generator: Adobe Illustrator 26.5.0, SVG Export Plug-In . SVG Version: 6.00 Build 0)  -->
<svg version="1.1" id="图层_1" xmlns="http://www.w3.org/2000/svg" xmlns:xlink="http://www.w3.org/1999/xlink" x="0px" y="0px"
	 viewBox="0 0 44.3 42.1" style="enable-background:new 0 0 44.3 42.1;" xml:space="preserve">
<style type="text/css">
	.st0{fill:#696969;}
	.st1{fill:none;}
</style>
<g transform="translate(-217.839,-158.94917)">
	<g>
		<path class="st0" d="M239.9,192.5c-6.9,0-12.5-5.7-12.5-12.7s5.6-12.7,12.5-12.7s12.5,5.7,12.5,12.7S246.8,192.5,239.9,192.5z
			 M239.9,171.1c-4.7,0-8.5,3.9-8.5,8.7c0,4.8,3.8,8.7,8.5,8.7c4.7,0,8.5-3.9,8.5-8.7C248.4,175,244.6,171.1,239.9,171.1z"/>
		<path class="st0" d="M236.8,162c0-1.7,1.4-3.1,3.1-3.1c1.7,0,3.1,1.4,3.1,3.1c0,1.7-1.4,3.1-3.1,3.1
			C238.2,165.1,236.8,163.8,236.8,162z"/>
		<path class="st0" d="M239.9,194.9c1.7,0,3.1,1.4,3.1,3.1c0,1.7-1.4,3.1-3.1,3.1c-1.7,0-3.1-1.4-3.1-3.1
			C236.8,196.2,238.2,194.9,239.9,194.9z"/>
		<path class="st0" d="M222.2,172.9c-1.5-0.9-2-2.8-1.1-4.2c0.9-1.5,2.8-2,4.2-1.1c1.5,0.9,2,2.8,1.1,4.2
			C225.6,173.2,223.7,173.7,222.2,172.9z"/>
		<path class="st0" d="M253.6,188.6c0.9-1.5,2.8-2,4.2-1.1c1.5,0.9,2,2.8,1.1,4.2s-2.8,2-4.2,1.1S252.7,190.1,253.6,188.6
			L253.6,188.6z"/>
		<path class="st0" d="M253.7,171.4c-0.8-1.5-0.3-3.4,1.2-4.2c1.5-0.8,3.4-0.3,4.2,1.2s0.3,3.4-1.2,4.2
			C256.4,173.4,254.5,172.9,253.7,171.4L253.7,171.4z"/>
		<path class="st0" d="M225.2,192.9c-1.5,0.8-3.4,0.3-4.2-1.2c-0.8-1.5-0.3-3.4,1.2-4.2s3.4-0.3,4.2,1.2S226.7,192.1,225.2,192.9
			L225.2,192.9z"/>
		<path class="st1" d="M217.8,201v-42h44.3v42H217.8z"/>
	</g>
</g>
</svg>
