<?xml version="1.0" encoding="utf-8"?>
<!-- Generator: Adobe Illustrator 26.5.0, SVG Export Plug-In . SVG Version: 6.00 Build 0)  -->
<svg version="1.1" id="图层_1" xmlns="http://www.w3.org/2000/svg" xmlns:xlink="http://www.w3.org/1999/xlink" x="0px" y="0px"
	 viewBox="0 0 30.7 21.4" style="enable-background:new 0 0 30.7 21.4;" xml:space="preserve">
<style type="text/css">
	.st0{fill:#7F7F7F;}
</style>
<g transform="translate(-224.63226,-169.32229)">
	<g>
		<path class="st0" d="M249.8,178.8l-3-0.3c0.1-1.4-0.3-2.8-1.2-3.9c-0.9-1.1-2.2-1.8-3.6-1.9c-1.4-0.1-2.8,0.3-3.9,1.2
			c-1.1,0.9-1.8,2.2-1.9,3.6l-3-0.3c0.2-2.2,1.3-4.2,3-5.6c1.7-1.4,3.9-2.1,6.1-1.8c2.2,0.2,4.2,1.3,5.6,3
			C249.3,174.4,250,176.6,249.8,178.8z"/>
		<path class="st0" d="M232.4,190.7c-1,0-2-0.2-2.9-0.6c-4-1.6-5.9-6.2-4.3-10.1c1.6-4,6.2-5.9,10.1-4.3l-1.1,2.8
			c-2.5-1-5.3,0.2-6.2,2.7c-1,2.5,0.2,5.3,2.7,6.2c0.6,0.3,1.3,0.4,2,0.3l0.1,3C232.6,190.7,232.5,190.7,232.4,190.7z"/>
		<path class="st0" d="M248.4,190.7l-0.2,0l0.1-3l0.1,0c2.1,0,3.9-1.7,3.9-3.9c0-2.1-1.7-3.9-3.9-3.9v-3c3.8,0,6.9,3.1,6.9,6.9
			C255.3,187.6,252.2,190.7,248.4,190.7z"/>
		<path class="st0" d="M248.4,190.7h-16c-0.8,0-1.5-0.7-1.5-1.5s0.7-1.5,1.5-1.5h16c0.8,0,1.5,0.7,1.5,1.5S249.3,190.7,248.4,190.7z
			"/>
		<path class="st0" d="M253.3,181l-2.1-2.2c0.8-0.7,1.2-1.7,1.2-2.7c0-1-0.4-2-1.1-2.7c-0.7-0.7-1.7-1.1-2.7-1.1c-1,0-1.9,0.4-2.6,1
			l-2.1-2.2c1.3-1.2,2.9-1.9,4.6-1.9c0,0,0,0,0,0c1.8,0,3.5,0.7,4.8,2c1.3,1.3,2,3,2,4.8C255.4,177.9,254.6,179.7,253.3,181z"/>
		<path class="st0" d="M235.3,179.6c-0.5,0-1-0.2-1.3-0.7l-1-1.6c-0.4-0.7-0.2-1.6,0.5-2.1c0.7-0.4,1.6-0.2,2.1,0.5l1,1.6
			c0.4,0.7,0.2,1.6-0.5,2.1C235.8,179.5,235.5,179.6,235.3,179.6z"/>
		<path class="st0" d="M247.6,180.8c-0.4,0-0.7-0.1-1-0.4c-0.6-0.6-0.6-1.5-0.1-2.1l1.1-1.2c0.6-0.6,1.5-0.6,2.1-0.1
			c0.6,0.6,0.6,1.5,0.1,2.1l-1.1,1.2C248.4,180.6,248,180.8,247.6,180.8z"/>
	</g>
</g>
</svg>
