<?xml version="1.0" encoding="UTF-8"?>
<svg xmlns="http://www.w3.org/2000/svg" xmlns:xlink="http://www.w3.org/1999/xlink" width="32px" height="32px" viewBox="0 0 32 34" version="1.1">
<g id="surface1">
<path style=" stroke:none;fill-rule:nonzero;fill:rgb(57.647059%,57.647059%,57.647059%);fill-opacity:1;" d="M 0.0703125 12.492188 C 0.0703125 12.492188 0.519531 8.152344 3.605469 7.882812 C 6.054688 7.675781 7.859375 10.289062 8.046875 11.78125 C 8.160156 12.75 8.679688 17.1875 4.871094 17.984375 C 1.066406 18.78125 -0.347656 14.496094 0.0703125 12.492188 Z M 10.441406 24.378906 L 12.578125 24.378906 L 12.578125 29.128906 L 10.585938 29.128906 C 10.585938 29.128906 9.195312 29.058594 8.769531 27.5 C 8.554688 26.808594 8.804688 26.011719 8.914062 25.699219 C 9.019531 25.386719 9.480469 24.65625 10.441406 24.378906 Z M 8.136719 5.269531 C 8.136719 2.355469 9.839844 0 11.941406 0 C 14.046875 0 15.746094 2.355469 15.746094 5.269531 C 15.746094 8.1875 14.046875 10.546875 11.941406 10.546875 C 9.839844 10.546875 8.136719 8.1875 8.136719 5.269531 Z M 17.832031 5.582031 C 18.058594 3.554688 20.550781 0.441406 22.546875 0.886719 C 24.539062 1.328125 26.351562 3.898438 25.984375 6.109375 C 25.625 8.328125 23.816406 11.25 21.003906 10.894531 C 18.195312 10.542969 17.5625 8.066406 17.832031 5.582031 Z M 21.003906 17.097656 C 23.546875 20.640625 27.898438 23.921875 27.898438 23.921875 C 27.898438 23.921875 31.15625 26.402344 29.074219 31.1875 C 26.992188 35.96875 19.371094 33.484375 19.371094 33.484375 C 19.371094 33.484375 16.5625 32.605469 13.300781 33.308594 C 10.042969 34.019531 7.230469 33.75 7.230469 33.75 C 7.230469 33.75 3.417969 33.839844 2.332031 29.144531 C 1.246094 24.449219 6.136719 21.878906 6.503906 21.4375 C 6.863281 20.992188 9.402344 19.3125 11.03125 16.65625 C 12.667969 14 17.5625 11.871094 21.003906 17.097656 Z M 9.910156 31.039062 L 14.859375 31.039062 L 14.859375 19.382812 L 12.617188 19.347656 L 12.617188 22.503906 L 9.976562 22.503906 C 9.976562 22.503906 7.34375 22.714844 6.417969 25.628906 C 6.097656 27.570312 6.707031 28.714844 6.8125 28.960938 C 6.917969 29.203125 7.769531 30.625 9.910156 31.039062 Z M 24.085938 31.007812 L 24.085938 22.785156 L 21.625 22.785156 L 21.625 28.960938 L 19.277344 28.960938 C 19.277344 28.960938 18.527344 28.855469 18.386719 28.265625 L 18.386719 22.75 L 16.074219 22.785156 L 16.074219 28.921875 C 16.074219 28.921875 16.175781 30.453125 18.386719 31.007812 Z M 28.4375 20.289062 C 24.265625 20.378906 24.089844 17.539062 24.089844 15.507812 C 24.089844 13.378906 24.539062 10.363281 27.898438 10.363281 C 31.25 10.363281 32.15625 13.554688 32.15625 14.617188 C 32.15625 15.683594 32.609375 20.199219 28.4375 20.289062 Z M 28.4375 20.289062 "/>
</g>
</svg>
