<?xml version="1.0" encoding="UTF-8"?>
<svg xmlns="http://www.w3.org/2000/svg" xmlns:xlink="http://www.w3.org/1999/xlink" width="32px" height="32px" viewBox="0 0 32 36" version="1.1">
<g id="surface1">
<path style=" stroke:none;fill-rule:nonzero;fill:rgb(52.941176%,52.941176%,52.941176%);fill-opacity:1;" d="M 10.8125 34.296875 C 11.019531 33.992188 11.226562 33.6875 11.226562 33.585938 L 11.226562 29.433594 C 4.804688 30.75 3.457031 26.796875 3.457031 26.796875 C 2.421875 24.164062 0.871094 23.453125 0.871094 23.453125 C -1.203125 22.035156 1.078125 22.035156 1.078125 22.035156 C 3.355469 22.238281 4.597656 24.367188 4.597656 24.367188 C 6.667969 27.8125 9.984375 26.796875 11.328125 26.292969 C 11.535156 24.875 12.15625 23.859375 12.78125 23.253906 C 7.601562 22.644531 2.214844 20.71875 2.214844 12.109375 C 2.214844 9.675781 3.148438 7.652344 4.597656 6.03125 C 4.390625 5.421875 3.5625 3.191406 4.804688 0.0507812 C 4.804688 0.0507812 6.773438 -0.554688 11.121094 2.382812 C 12.988281 1.875 14.953125 1.671875 16.921875 1.671875 C 18.890625 1.671875 20.859375 1.976562 22.722656 2.382812 C 27.175781 -0.554688 29.039062 0.0507812 29.039062 0.0507812 C 30.28125 3.191406 29.558594 5.421875 29.246094 6.03125 C 30.695312 7.652344 31.628906 9.574219 31.628906 12.109375 C 31.628906 20.71875 26.242188 22.644531 21.066406 23.253906 C 21.894531 23.960938 22.617188 25.277344 22.617188 27.40625 L 22.617188 33.585938 C 22.617188 33.789062 22.722656 33.992188 23.03125 34.296875 C 23.34375 34.699219 23.238281 35.410156 22.824219 35.714844 C 22.617188 35.816406 22.410156 35.917969 22.203125 35.917969 L 11.640625 35.917969 C 11.019531 35.917969 10.605469 35.511719 10.605469 34.902344 C 10.605469 34.597656 10.707031 34.398438 10.8125 34.296875 Z M 10.8125 34.296875 "/>
</g>
</svg>
