<?xml version="1.0" encoding="UTF-8"?>
<svg xmlns="http://www.w3.org/2000/svg" xmlns:xlink="http://www.w3.org/1999/xlink" width="32px" height="32px" viewBox="0 0 32 32" version="1.1">
<g id="surface1">
<path style=" stroke:none;fill-rule:nonzero;fill:rgb(51.372549%,51.372549%,51.372549%);fill-opacity:1;" d="M 16.085938 31.859375 C 10.882812 31.859375 5.945312 29.335938 2.894531 25.082031 L 8.675781 20.929688 C 10.410156 23.347656 13.195312 24.765625 16.136719 24.765625 C 17.660156 24.765625 19.082031 24.398438 20.394531 23.714844 L 23.703125 29.96875 C 21.289062 31.230469 18.710938 31.859375 16.085938 31.859375 Z M 16.085938 31.859375 "/>
<path style=" stroke:none;fill-rule:nonzero;fill:rgb(44.313725%,44.313725%,44.313725%);fill-opacity:1;" d="M 2.84375 25.082031 C 0.953125 22.402344 0.0078125 19.195312 0.0078125 15.9375 C 0.0078125 12.15625 1.371094 8.476562 3.789062 5.585938 L 9.203125 10.15625 C 7.835938 11.785156 7.101562 13.835938 7.101562 15.9375 C 7.101562 17.777344 7.625 19.5625 8.675781 21.035156 Z M 2.84375 25.082031 "/>
<path style=" stroke:none;fill-rule:nonzero;fill:rgb(62.352941%,62.352941%,62.352941%);fill-opacity:1;" d="M 9.148438 10.210938 L 3.789062 5.535156 C 6.785156 2.066406 11.199219 0.0703125 15.769531 0.0703125 C 19.921875 0.0703125 23.863281 1.644531 26.855469 4.535156 L 21.917969 9.632812 C 20.289062 8.054688 18.082031 7.164062 15.769531 7.164062 C 13.246094 7.214844 10.832031 8.320312 9.148438 10.210938 Z M 9.148438 10.210938 "/>
<path style=" stroke:none;fill-rule:nonzero;fill:rgb(45.098039%,45.098039%,45.098039%);fill-opacity:1;" d="M 23.597656 30.019531 L 20.234375 23.765625 C 23.125 22.242188 24.914062 19.25 24.914062 15.992188 C 24.914062 15.359375 24.859375 14.78125 24.753906 14.203125 L 31.691406 12.839844 C 31.902344 13.890625 32.007812 14.992188 32.007812 16.097656 C 32.007812 21.875 28.75 27.234375 23.597656 30.019531 Z M 23.597656 30.019531 "/>
<path style=" stroke:none;fill-rule:nonzero;fill:rgb(46.666667%,46.666667%,46.666667%);fill-opacity:1;" d="M 15.507812 19.195312 L 15.507812 12.734375 L 31.429688 12.734375 L 31.429688 19.195312 Z M 15.507812 19.195312 "/>
</g>
</svg>
