<?xml version="1.0" encoding="utf-8"?>
<!-- Generator: Adobe Illustrator 26.5.0, SVG Export Plug-In . SVG Version: 6.00 Build 0)  -->
<svg version="1.1" id="图层_1" xmlns="http://www.w3.org/2000/svg" xmlns:xlink="http://www.w3.org/1999/xlink" x="0px" y="0px"
	 viewBox="0 0 32 32" style="enable-background:new 0 0 32 32;" xml:space="preserve">
<style type="text/css">
	.st0{fill-rule:evenodd;clip-rule:evenodd;fill:#A3A3A3;}
	.st1{fill:#9C9C9C;}
	.st2{fill-rule:evenodd;clip-rule:evenodd;fill:#ADADAD;}
</style>
<g>
	<g>
		<path class="st0" d="M16.9,19.3c0-0.7,0.4-1.3,0.9-1.6l3-1.7l-3-1.8c-0.6-0.3-0.9-1-0.9-1.6v-1.6c0-1.2,1.3-1.9,2.3-1.3l4.4,2.6
			c0.8,0.4,1.3,1.3,1.3,2.2v3.2c0,0.9-0.5,1.7-1.3,2.2l-4.4,2.5c-1,0.6-2.3-0.1-2.3-1.3V19.3z"/>
		<path class="st0" d="M7,17.6v-3.2c0-0.9,0.5-1.7,1.3-2.2l4.4-2.6c1-0.6,2.3,0.1,2.3,1.3v1.6c0,0.7-0.4,1.3-0.9,1.6l-3,1.8l3,1.7
			c0.6,0.3,0.9,1,0.9,1.6v1.7c0,1.2-1.3,1.9-2.3,1.3l-4.4-2.5C7.5,19.3,7,18.5,7,17.6z"/>
	</g>
	<path class="st1" d="M29.2,25c1.1,0.4,2-4,2.4-6.1C33.5,7.3,22.8-2.7,10.9,1C6.3,2.4,2.5,6,1,10.5c-4.1,11.8,5.5,22.8,17.1,21.3
		c2.3-0.3,6.7-1.9,6.5-2.9C23.9,25.6,26.9,24,29.2,25z M11,27c-2.8-1.2-5.1-3.5-6.1-6.4C1,10.4,10.8,1,20.9,5.2
		c2.8,1.2,5.1,3.5,6.2,6.4C30.8,21.8,21,31.2,11,27z"/>
	<path class="st2" d="M30.7,28.1c0,1.5-1.3,2.8-2.8,2.8c-1.5,0-2.8-1.3-2.8-2.8c0-1.5,1.3-2.8,2.8-2.8
		C29.4,25.4,30.7,26.6,30.7,28.1z"/>
</g>
</svg>
