<?xml version="1.0" encoding="UTF-8"?>
<svg xmlns="http://www.w3.org/2000/svg" xmlns:xlink="http://www.w3.org/1999/xlink" width="32px" height="32px" viewBox="0 0 32 32" version="1.1">
<g id="surface1">
<path style=" stroke:none;fill-rule:nonzero;fill:rgb(69.019608%,69.019608%,69.019608%);fill-opacity:1;" d="M 16.113281 30.066406 C 12.65625 30.066406 9.199219 28.789062 6.382812 26.355469 C 0.496094 20.980469 -0.015625 11.890625 5.230469 6.003906 C 10.351562 0.753906 16.625 1.269531 16.496094 1.394531 C 16.238281 2.035156 15.34375 9.714844 19.566406 13.683594 C 24.433594 18.292969 30.320312 15.089844 30.320312 15.089844 C 30.320312 15.089844 30.320312 21.363281 26.609375 25.460938 C 23.921875 28.402344 20.078125 30.066406 16.113281 30.066406 Z M 13.039062 4.722656 C 10.992188 5.234375 9.070312 6.386719 7.664062 8.050781 C 3.566406 12.660156 3.953125 19.699219 8.558594 23.921875 C 13.167969 28.148438 20.335938 27.765625 24.433594 23.285156 C 25.585938 22.132812 26.351562 20.597656 26.863281 19.316406 C 24.433594 19.445312 20.71875 19.058594 17.519531 16.117188 C 13.679688 12.402344 13.039062 7.539062 13.039062 4.722656 Z M 13.039062 4.722656 "/>
</g>
</svg>
