<?xml version="1.0" encoding="UTF-8"?>
<svg xmlns="http://www.w3.org/2000/svg" xmlns:xlink="http://www.w3.org/1999/xlink" width="32px" height="32px" viewBox="0 0 32 35" version="1.1">
<g id="surface1">
<path style=" stroke:none;fill-rule:nonzero;fill:rgb(47.843137%,47.843137%,47.843137%);fill-opacity:1;" d="M 15.558594 30.40625 C 7.0625 30.40625 0.21875 23.625 0.21875 15.203125 C 0.21875 6.78125 7.0625 0 15.558594 0 C 24.054688 0 30.898438 6.78125 30.898438 15.203125 C 30.898438 23.625 24.054688 30.40625 15.558594 30.40625 Z M 15.558594 5.46875 C 10.152344 5.46875 5.738281 9.84375 5.738281 15.203125 C 5.738281 20.5625 10.152344 24.9375 15.558594 24.9375 C 20.964844 24.9375 25.378906 20.5625 25.378906 15.203125 C 25.378906 9.84375 20.964844 5.46875 15.558594 5.46875 Z M 15.558594 5.46875 "/>
<path style=" stroke:none;fill-rule:nonzero;fill:rgb(54.901961%,54.901961%,54.901961%);fill-opacity:1;" d="M 29.019531 35 C 28.25 35 27.367188 34.671875 26.8125 33.90625 L 21.957031 27.78125 C 20.964844 26.578125 21.1875 24.828125 22.398438 23.953125 C 23.613281 22.96875 25.378906 23.1875 26.261719 24.390625 L 31.117188 30.515625 C 32.109375 31.71875 31.890625 33.46875 30.675781 34.34375 C 30.234375 34.78125 29.574219 35 29.019531 35 Z M 29.019531 35 "/>
</g>
</svg>
