<?xml version="1.0" encoding="UTF-8"?>
<svg xmlns="http://www.w3.org/2000/svg" xmlns:xlink="http://www.w3.org/1999/xlink" width="32px" height="32px" viewBox="0 0 32 30" version="1.1">
<g id="surface1">
<path style=" stroke:none;fill-rule:nonzero;fill:rgb(41.176471%,41.176471%,41.176471%);fill-opacity:1;" d="M 15.9375 23.867188 C 10.953125 23.867188 6.90625 19.824219 6.90625 14.859375 C 6.90625 9.890625 10.953125 5.847656 15.9375 5.847656 C 20.917969 5.847656 24.964844 9.890625 24.964844 14.859375 C 24.964844 19.824219 20.917969 23.867188 15.9375 23.867188 Z M 15.9375 8.6875 C 12.539062 8.6875 9.796875 11.453125 9.796875 14.859375 C 9.796875 18.265625 12.539062 21.03125 15.9375 21.03125 C 19.332031 21.03125 22.074219 18.265625 22.074219 14.859375 C 22.074219 11.453125 19.332031 8.6875 15.9375 8.6875 Z M 15.9375 8.6875 "/>
<path style=" stroke:none;fill-rule:nonzero;fill:rgb(41.176471%,41.176471%,41.176471%);fill-opacity:1;" d="M 13.695312 2.230469 C 13.695312 1.023438 14.707031 0.03125 15.9375 0.03125 C 17.164062 0.03125 18.175781 1.023438 18.175781 2.230469 C 18.175781 3.4375 17.164062 4.429688 15.9375 4.429688 C 14.707031 4.429688 13.695312 3.507812 13.695312 2.230469 Z M 13.695312 2.230469 "/>
<path style=" stroke:none;fill-rule:nonzero;fill:rgb(41.176471%,41.176471%,41.176471%);fill-opacity:1;" d="M 15.9375 25.570312 C 17.164062 25.570312 18.175781 26.566406 18.175781 27.769531 C 18.175781 28.976562 17.164062 29.96875 15.9375 29.96875 C 14.707031 29.96875 13.695312 28.976562 13.695312 27.769531 C 13.695312 26.492188 14.707031 25.570312 15.9375 25.570312 Z M 15.9375 25.570312 "/>
<path style=" stroke:none;fill-rule:nonzero;fill:rgb(41.176471%,41.176471%,41.176471%);fill-opacity:1;" d="M 3.148438 9.964844 C 2.066406 9.324219 1.707031 7.976562 2.355469 6.984375 C 3.003906 5.917969 4.378906 5.566406 5.390625 6.203125 C 6.472656 6.84375 6.835938 8.191406 6.183594 9.183594 C 5.605469 10.175781 4.234375 10.53125 3.148438 9.964844 Z M 3.148438 9.964844 "/>
<path style=" stroke:none;fill-rule:nonzero;fill:rgb(41.176471%,41.176471%,41.176471%);fill-opacity:1;" d="M 25.832031 21.101562 C 26.480469 20.039062 27.855469 19.683594 28.867188 20.320312 C 29.949219 20.960938 30.308594 22.308594 29.660156 23.300781 C 29.011719 24.292969 27.636719 24.71875 26.625 24.082031 C 25.613281 23.441406 25.183594 22.167969 25.832031 21.101562 Z M 25.832031 21.101562 "/>
<path style=" stroke:none;fill-rule:nonzero;fill:rgb(41.176471%,41.176471%,41.176471%);fill-opacity:1;" d="M 25.902344 8.898438 C 25.328125 7.835938 25.6875 6.488281 26.769531 5.917969 C 27.855469 5.351562 29.226562 5.707031 29.804688 6.769531 C 30.382812 7.835938 30.023438 9.183594 28.9375 9.75 C 27.855469 10.316406 26.480469 9.964844 25.902344 8.898438 Z M 25.902344 8.898438 "/>
<path style=" stroke:none;fill-rule:nonzero;fill:rgb(41.176471%,41.176471%,41.176471%);fill-opacity:1;" d="M 5.316406 24.152344 C 4.234375 24.71875 2.859375 24.367188 2.285156 23.300781 C 1.707031 22.238281 2.066406 20.890625 3.148438 20.320312 C 4.234375 19.753906 5.605469 20.109375 6.183594 21.171875 C 6.761719 22.238281 6.402344 23.585938 5.316406 24.152344 Z M 5.316406 24.152344 "/>
</g>
</svg>
