<?xml version="1.0" encoding="UTF-8"?>
<svg xmlns="http://www.w3.org/2000/svg" xmlns:xlink="http://www.w3.org/1999/xlink" width="32px" height="32px" viewBox="0 0 32 21" version="1.1">
<g id="surface1">
<path style=" stroke:none;fill-rule:nonzero;fill:rgb(49.803922%,49.803922%,49.803922%);fill-opacity:1;" d="M 25.945312 9.300781 L 22.90625 9.007812 C 23.007812 7.632812 22.601562 6.257812 21.691406 5.179688 C 20.777344 4.101562 19.460938 3.414062 18.042969 3.316406 C 16.625 3.214844 15.207031 3.609375 14.09375 4.492188 C 12.980469 5.375 12.269531 6.652344 12.167969 8.023438 L 9.128906 7.730469 C 9.332031 5.570312 10.445312 3.609375 12.167969 2.234375 C 13.890625 0.859375 16.121094 0.175781 18.347656 0.46875 C 20.578125 0.664062 22.601562 1.746094 24.019531 3.414062 C 25.4375 4.984375 26.148438 7.140625 25.945312 9.300781 Z M 25.945312 9.300781 "/>
<path style=" stroke:none;fill-rule:nonzero;fill:rgb(49.803922%,49.803922%,49.803922%);fill-opacity:1;" d="M 8.320312 20.976562 C 7.304688 20.976562 6.292969 20.78125 5.382812 20.390625 C 1.328125 18.820312 -0.59375 14.304688 1.027344 10.476562 C 2.648438 6.554688 7.304688 4.6875 11.257812 6.257812 L 10.144531 9.007812 C 7.609375 8.023438 4.773438 9.203125 3.863281 11.65625 C 2.847656 14.109375 4.066406 16.855469 6.597656 17.738281 C 7.207031 18.035156 7.914062 18.132812 8.625 18.035156 L 8.726562 20.976562 C 8.523438 20.976562 8.421875 20.976562 8.320312 20.976562 Z M 8.320312 20.976562 "/>
<path style=" stroke:none;fill-rule:nonzero;fill:rgb(49.803922%,49.803922%,49.803922%);fill-opacity:1;" d="M 24.527344 20.976562 L 24.324219 20.976562 L 24.425781 18.035156 L 24.527344 18.035156 C 26.652344 18.035156 28.476562 16.367188 28.476562 14.207031 C 28.476562 12.144531 26.753906 10.378906 24.527344 10.378906 L 24.527344 7.4375 C 28.375 7.4375 31.515625 10.476562 31.515625 14.207031 C 31.515625 17.9375 28.375 20.976562 24.527344 20.976562 Z M 24.527344 20.976562 "/>
<path style=" stroke:none;fill-rule:nonzero;fill:rgb(49.803922%,49.803922%,49.803922%);fill-opacity:1;" d="M 24.527344 20.976562 L 8.320312 20.976562 C 7.507812 20.976562 6.800781 20.292969 6.800781 19.507812 C 6.800781 18.722656 7.507812 18.035156 8.320312 18.035156 L 24.527344 18.035156 C 25.335938 18.035156 26.046875 18.722656 26.046875 19.507812 C 26.046875 20.292969 25.4375 20.976562 24.527344 20.976562 Z M 24.527344 20.976562 "/>
<path style=" stroke:none;fill-rule:nonzero;fill:rgb(49.803922%,49.803922%,49.803922%);fill-opacity:1;" d="M 29.492188 11.460938 L 27.363281 9.300781 C 28.171875 8.613281 28.578125 7.632812 28.578125 6.652344 C 28.578125 5.667969 28.171875 4.6875 27.464844 4 C 26.753906 3.316406 25.742188 2.921875 24.730469 2.921875 C 23.714844 2.921875 22.804688 3.316406 22.097656 3.902344 L 19.96875 1.746094 C 21.285156 0.566406 22.90625 -0.121094 24.628906 -0.121094 C 26.453125 -0.121094 28.171875 0.566406 29.492188 1.84375 C 30.808594 3.117188 31.515625 4.785156 31.515625 6.554688 C 31.617188 8.417969 30.808594 10.183594 29.492188 11.460938 Z M 29.492188 11.460938 "/>
<path style=" stroke:none;fill-rule:nonzero;fill:rgb(49.803922%,49.803922%,49.803922%);fill-opacity:1;" d="M 11.257812 10.085938 C 10.75 10.085938 10.242188 9.890625 9.941406 9.398438 L 8.925781 7.828125 C 8.523438 7.140625 8.726562 6.257812 9.433594 5.769531 C 10.144531 5.375 11.054688 5.570312 11.5625 6.257812 L 12.574219 7.828125 C 12.980469 8.515625 12.777344 9.398438 12.066406 9.890625 C 11.761719 9.988281 11.460938 10.085938 11.257812 10.085938 Z M 11.257812 10.085938 "/>
<path style=" stroke:none;fill-rule:nonzero;fill:rgb(49.803922%,49.803922%,49.803922%);fill-opacity:1;" d="M 23.714844 11.261719 C 23.3125 11.261719 23.007812 11.164062 22.703125 10.871094 C 22.097656 10.28125 22.097656 9.398438 22.601562 8.808594 L 23.714844 7.632812 C 24.324219 7.042969 25.234375 7.042969 25.84375 7.535156 C 26.453125 8.121094 26.453125 9.007812 25.945312 9.59375 L 24.832031 10.773438 C 24.527344 11.066406 24.121094 11.261719 23.714844 11.261719 Z M 23.714844 11.261719 "/>
</g>
</svg>
